<?xml version="1.0" encoding="utf-8"?>
<!-- Generator: Adobe Illustrator 22.1.0, SVG Export Plug-In . SVG Version: 6.00 Build 0)  -->
<svg version="1.1" id="Layer_1" xmlns="http://www.w3.org/2000/svg" xmlns:xlink="http://www.w3.org/1999/xlink" x="0px" y="0px"
	 viewBox="0 0 64 64" style="enable-background:new 0 0 64 64;" xml:space="preserve">
<style type="text/css">
	.st0{fill:#0078D4;}
	.st1{fill:#FFFFFF;}
</style>
<title>security</title>
<g id="Layer_2_1_">
	<g id="SYMBOLS">
		<g id="security">
			<path class="st0" d="M31,60.4c-2.1-1.2-4.2-2.6-6.3-4c-2.1-1.5-4.1-3.1-6.1-4.9c-1.9-1.7-3.8-3.6-5.4-5.6c-1.7-2-3.1-4.1-4.4-6.4
				c-1.2-2.3-2.2-4.7-2.9-7.2c-0.7-2.6-1.1-5.3-1.1-8V10.8h1.8c2.8-0.2,5.6-0.7,8.3-1.5c2.6-0.8,5.2-2,7.5-3.5
				c1.4-0.9,3-1.7,4.6-2.2C28.6,3.2,30.3,3,32,3s3.4,0.2,5.1,0.7c1.6,0.5,3.2,1.2,4.6,2.2c2.3,1.5,4.8,2.6,7.5,3.4s5.4,1.2,8.2,1.4
				h1.8v13.7c0,2.7-0.4,5.4-1.1,8c-0.7,2.5-1.7,4.9-3,7.2S52.4,44,50.7,46s-3.5,3.8-5.4,5.6s-3.9,3.4-6.1,4.9
				c-2.1,1.4-4.2,2.8-6.3,4L32,61L31,60.4z"/>
			<polyline class="st1" points="34.9,16.8 34.9,36.3 29.1,36.3 29.1,16.8 34.9,16.8 			"/>
			<rect x="29.1" y="40.3" class="st1" width="5.9" height="4.1"/>
		</g>
	</g>
</g>
</svg>
